<svg xmlns="http://www.w3.org/2000/svg" viewBox="0 0 780 480">
<defs>
 <linearGradient id="bg" x1="0" y1="0" x2="1" y2="1"><stop stop-color="#082b4c"/><stop offset="1" stop-color="#04172a"/></linearGradient>
 <filter id="glow"><feGaussianBlur stdDeviation="7" result="b"/><feMerge><feMergeNode in="b"/><feMergeNode in="SourceGraphic"/></feMerge></filter>
</defs>
<rect width="780" height="480" rx="30" fill="url(#bg)"/>
<g fill="none" stroke="#7ca3be" stroke-opacity=".25" stroke-width="3">
 <path d="M-20 90C140 115 205 40 350 90s280 35 470-20"/>
 <path d="M-30 240c190-70 260 40 420-8s225-20 420 30"/>
 <path d="M50 520c80-130 175-170 265-300S470 30 610-20"/>
 <path d="M240 510c20-140 105-210 210-280S625 85 700-20"/>
</g>
<g fill="#d89c27" filter="url(#glow)">
 <circle cx="420" cy="245" r="9"/>
 <circle cx="420" cy="245" r="20" fill="none" stroke="#d89c27" stroke-width="3" opacity=".55"/>
</g>
<path d="M420 190c-34 0-61 27-61 61 0 46 61 105 61 105s61-59 61-105c0-34-27-61-61-61zm0 85a25 25 0 1 1 0-50 25 25 0 0 1 0 50z" fill="#d89c27"/>
<text x="420" y="395" text-anchor="middle" font-family="Arial" font-size="22" fill="#fff">Suramangalam, Salem</text>
</svg>